HIERARCHY
ROOT Hips
{
    OFFSET 0.000000 0.000000 0.000000
    CHANNELS 6 Xposition Yposition Zposition Zrotation Xrotation Yrotation
    JOINT Spine
    {
        OFFSET -0.000000 8.339920 0.000000
        CHANNELS 3 Zrotation Xrotation Yrotation
        JOINT Spine1
        {
            OFFSET -0.000000 25.214485 0.000000
            CHANNELS 3 Zrotation Xrotation Yrotation
            JOINT Neck
            {
                OFFSET -0.000000 25.110935 2.282812
                CHANNELS 3 Zrotation Xrotation Yrotation
                JOINT Head
                {
                    OFFSET -0.000000 14.238888 -2.034127
                    CHANNELS 3 Zrotation Xrotation Yrotation
                    End Site
                    {
                        OFFSET -0.000000 25.426584 0.000000
                    }
                }
            }
            JOINT LeftShoulder
            {
                OFFSET 4.025024 23.158985 -0.185822
                CHANNELS 3 Zrotation Xrotation Yrotation
                JOINT LeftArm
                {
                    OFFSET 11.674057 0.000000 0.000000
                    CHANNELS 3 Zrotation Xrotation Yrotation
                    JOINT LeftForeArm
                    {
                        OFFSET 31.688633 0.000000 0.000000
                        CHANNELS 3 Zrotation Xrotation Yrotation
                        JOINT LeftHand
                        {
                            OFFSET 29.704493 0.000000 0.000000
                            CHANNELS 3 Zrotation Xrotation Yrotation
                            End Site
                            {
                                OFFSET 15.255952 0.000000 0.000000
                            }
                        }
                    }
                }
            }
            JOINT RightShoulder
            {
                OFFSET -4.099539 23.158985 -0.185822
                CHANNELS 3 Zrotation Xrotation Yrotation
                JOINT RightArm
                {
                    OFFSET -11.674057 0.000000 0.000000
                    CHANNELS 3 Zrotation Xrotation Yrotation
                    JOINT RightForeArm
                    {
                        OFFSET -31.688633 0.000000 0.000000
                        CHANNELS 3 Zrotation Xrotation Yrotation
                        JOINT RightHand
                        {
                            OFFSET -29.704493 0.000000 0.000000
                            CHANNELS 3 Zrotation Xrotation Yrotation
                            End Site
                            {
                                OFFSET -15.255952 0.000000 0.000000
                            }
                        }
                    }
                }
            }
        }
    }
    JOINT LeftUpLeg
    {
        OFFSET 10.170634 0.000000 0.000000
        CHANNELS 3 Zrotation Xrotation Yrotation
        JOINT LeftLeg
        {
            OFFSET -0.000000 -41.352962 0.000000
            CHANNELS 3 Zrotation Xrotation Yrotation
            JOINT LeftFoot
            {
                OFFSET -0.000000 -47.535004 0.000000
                CHANNELS 3 Zrotation Xrotation Yrotation
                JOINT LeftToeBase
                {
                    OFFSET -0.000000 -6.610912 15.255952
                    CHANNELS 3 Zrotation Xrotation Yrotation
                    End Site
                    {
                        OFFSET -0.000000 0.000000 4.068254
                    }
                }
            }
        }
    }
    JOINT RightUpLeg
    {
        OFFSET -10.170634 0.000000 0.000000
        CHANNELS 3 Zrotation Xrotation Yrotation
        JOINT RightLeg
        {
            OFFSET -0.000000 -41.352962 0.000000
            CHANNELS 3 Zrotation Xrotation Yrotation
            JOINT RightFoot
            {
                OFFSET -0.000000 -47.535004 0.000000
                CHANNELS 3 Zrotation Xrotation Yrotation
                JOINT RightToeBase
                {
                    OFFSET -0.000000 -6.610912 15.255952
                    CHANNELS 3 Zrotation Xrotation Yrotation
                    End Site
                    {
                        OFFSET -0.000000 0.000000 4.068254
                    }
                }
            }
        }
    }
}
MOTION
Frames:    4
Frame Time:    0.008333
34.285786    93.847038    48.598324    0.544213    -1.788124    87.834572    2.595837    -1.787828    -1.909958    -1.959444    -2.312973    -1.990038    -3.712229    29.213657    -0.253469    5.173008    -2.236701    0.101640    19.513067    -1.087653    2.484069    -17.554035    -9.817218    6.008355    6.095858    -20.274525    5.334407    -7.572612    -20.464771    -1.228559    -20.488577    1.293005    -7.166578    14.625147    -11.961684    3.375333    -2.641608    -13.097102    -2.939337    -13.592106    -13.169937    0.058680    0.890671    12.610424    -0.713908    0.553627    -8.484448    4.709941    1.013440    -4.101282    5.415655    0.000000    0.000000    0.000000    4.903372    9.953365    12.398554    -3.593256    -4.998617    0.626439    -2.760290    -4.154089    -16.880207    0.000000    0.000000    0.000000    
34.313889    93.838623    48.589973    0.562891    -1.813563    87.843300    2.619421    -1.779690    -1.912008    -1.940792    -2.315196    -1.991971    -3.738405    29.155212    -0.248260    5.164984    -2.121961    0.099673    19.448252    -1.075225    2.489956    -17.574276    -9.763628    6.024705    6.146517    -20.198921    5.386450    -7.930638    -20.366564    -1.596738    -20.533667    1.295233    -7.179723    14.695168    -11.959087    3.381984    -2.673536    -13.101616    -2.928249    -13.631086    -13.178217    0.086230    0.890671    12.610424    -0.713908    0.553627    -8.484448    4.709941    1.013440    -4.101282    5.415655    0.000000    0.000000    0.000000    13.211653    0.411673    57.623196    -3.593256    -4.998617    0.626439    -2.760290    -4.154089    -16.880207    0.000000    0.000000    0.000000    
34.329445    93.834595    48.572815    0.557598    -1.806477    87.850876    2.591719    -1.778267    -1.901711    -1.886466    -2.332407    -1.980363    -3.715232    29.143753    -0.266035    5.097195    -2.091498    0.072316    19.380571    -1.091308    2.472608    -17.599373    -9.707518    6.048954    6.158427    -20.213026    5.368475    -7.970372    -20.376299    -1.649692    -20.561821    1.324922    -7.209938    14.721534    -12.027830    3.382087    -2.675010    -13.083476    -2.924488    -13.651250    -13.160716    0.091980    0.890671    12.610424    -0.713908    0.553627    -8.484448    4.709941    1.013440    -4.101282    5.415655    0.000000    0.000000    0.000000    13.209310    0.378219    57.695332    -3.593256    -4.998617    0.626439    -2.760290    -4.154089    -16.880207    0.000000    0.000000    0.000000    
34.341080    93.836800    48.554268    0.545229    -1.784219    87.875420    2.576030    -1.776236    -1.918019    -1.877046    -2.359274    -1.996629    -3.725440    29.098848    -0.260813    5.061611    -2.011196    0.069024    19.323801    -1.078363    2.485458    -17.623306    -9.636567    6.088265    6.148899    -20.270414    5.312364    -7.904645    -20.433859    -1.609428    -20.573908    1.295591    -7.196120    14.739908    -12.047956    3.366230    -2.677594    -13.050526    -2.936952    -13.628600    -13.126066    0.074443    0.838379    12.630208    -0.652556    0.589483    -8.470201    4.678719    0.994289    -4.157174    5.358964    0.000000    0.000000    0.000000    4.897090    9.977595    12.360377    -3.615685    -4.973883    0.566914    -2.763708    -4.222768    -16.844919    0.000000    0.000000    0.000000    
